<?xml version="1.0" standalone="no"?>
<!DOCTYPE svg PUBLIC "-//W3C//DTD SVG 20010904//EN"
 "http://www.w3.org/TR/2001/REC-SVG-20010904/DTD/svg10.dtd">
<svg version="1.0" xmlns="http://www.w3.org/2000/svg"
 width="1500.000000pt" height="1000.000000pt" viewBox="0 0 1500.000000 1000.000000"
 preserveAspectRatio="xMidYMid meet">

<g transform="translate(0.000000,1000.000000) scale(0.100000,-0.100000)"
fill="#000000" stroke="none">
<path d="M2125 7484 c-16 -2 -77 -9 -135 -15 -127 -14 -369 -73 -505 -123
-542 -202 -995 -611 -1249 -1131 -106 -215 -175 -438 -213 -685 -21 -140 -24
-458 -4 -600 57 -422 231 -831 488 -1150 75 -92 254 -270 348 -346 321 -256
694 -416 1116 -478 142 -21 473 -21 611 -1 585 88 1075 359 1440 795 212 254
382 584 462 900 54 214 61 278 61 560 0 287 -8 350 -66 577 -160 626 -592
1160 -1174 1455 -218 110 -454 186 -695 222 -101 16 -423 29 -485 20z m296
-794 c671 -68 1206 -569 1321 -1235 28 -164 21 -408 -16 -565 -121 -518 -489
-924 -986 -1090 -164 -54 -307 -73 -510 -67 -191 6 -266 19 -427 72 -728 242
-1152 1013 -967 1761 120 488 478 883 950 1047 211 74 418 99 635 77z"/>
<path d="M2183 6595 c-135 -42 -273 -191 -375 -405 -43 -91 -113 -289 -105
-297 17 -16 257 -51 414 -60 l113 -6 0 391 c0 216 -1 392 -2 391 -2 0 -22 -6
-45 -14z"/>
<path d="M2320 6219 l0 -392 115 7 c167 9 395 43 413 60 10 11 -56 199 -108
305 -63 129 -117 208 -192 282 -53 53 -141 106 -205 124 l-23 6 0 -392z"/>
<path d="M1884 6555 c-247 -73 -493 -229 -654 -414 l-51 -60 93 -45 c85 -40
254 -104 321 -120 20 -5 27 -3 27 8 0 8 14 56 31 108 65 194 172 386 277 496
28 28 48 52 44 51 -4 0 -43 -11 -88 -24z"/>
<path d="M2631 6522 c111 -121 205 -293 274 -499 20 -59 38 -109 39 -111 8 -7
233 75 324 118 l104 50 -21 28 c-32 45 -191 193 -262 244 -128 91 -283 164
-440 208 l-70 19 52 -57z"/>
<path d="M1101 5972 c-115 -180 -200 -428 -218 -637 l-6 -75 327 0 326 0 0 70
c0 91 15 234 41 383 12 65 19 119 17 120 -1 2 -56 20 -120 40 -65 21 -167 62
-227 92 l-110 54 -30 -47z"/>
<path d="M3375 5995 c-58 -36 -238 -110 -330 -136 -44 -13 -81 -24 -82 -24 -2
-1 6 -46 16 -101 20 -101 36 -232 47 -386 l6 -88 322 0 322 0 -8 87 c-9 109
-32 214 -70 323 -33 95 -125 280 -160 323 l-23 27 -40 -25z"/>
<path d="M1671 5773 c-23 -84 -61 -400 -61 -505 0 -5 140 -8 310 -8 l310 0 0
243 0 244 -157 12 c-86 6 -208 21 -271 31 -63 11 -116 20 -118 20 -2 0 -8 -17
-13 -37z"/>
<path d="M2735 5789 c-55 -10 -171 -23 -257 -30 l-158 -12 0 -244 0 -243 311
0 312 0 -7 118 c-8 127 -18 209 -42 345 -19 100 -3 94 -159 66z"/>
<path d="M884 5088 c8 -95 35 -224 66 -318 18 -57 114 -262 138 -298 7 -10 25
-3 81 29 85 49 255 120 347 145 58 15 65 20 60 39 -15 61 -38 245 -43 358 l-6
127 -325 0 -325 0 7 -82z"/>
<path d="M1616 5083 c13 -202 40 -393 55 -393 6 0 60 9 122 20 130 23 294 40
378 40 l59 0 0 210 0 210 -310 0 -310 0 6 -87z"/>
<path d="M2320 4962 l0 -209 123 -7 c107 -5 321 -32 413 -52 26 -5 33 -2 38
13 12 37 36 235 42 348 l7 115 -311 0 -312 0 0 -208z"/>
<path d="M3026 5118 c-3 -29 -6 -75 -6 -103 0 -43 -11 -136 -36 -305 l-6 -45
118 -39 c66 -21 174 -67 241 -101 l123 -63 30 53 c100 175 161 368 178 568 l8
87 -322 0 -321 0 -7 -52z"/>
<path d="M1949 4655 c-98 -12 -259 -41 -266 -49 -2 -1 8 -43 22 -92 96 -335
250 -575 425 -662 110 -55 100 -94 100 393 l0 425 -87 -1 c-49 -1 -136 -7
-194 -14z"/>
<path d="M2320 4247 c0 -488 -10 -448 98 -397 121 57 238 194 328 383 44 94
106 271 119 339 l7 36 -49 11 c-91 21 -248 41 -375 48 l-128 6 0 -426z"/>
<path d="M2949 4546 c-69 -265 -193 -514 -323 -648 -56 -58 -47 -59 89 -14
246 83 462 228 626 419 38 45 69 84 69 88 0 21 -245 133 -387 177 l-63 20 -11
-42z"/>
<path d="M1470 4549 c-47 -16 -140 -56 -208 -90 l-122 -61 32 -45 c52 -72 237
-245 324 -302 43 -29 120 -72 169 -96 87 -43 261 -105 292 -105 10 0 -3 20
-35 54 -126 134 -258 397 -312 624 -14 63 -18 63 -140 21z"/>
<path d="M6709 7430 c-503 -49 -1007 -318 -1338 -715 -231 -277 -382 -602
-447 -960 -22 -122 -30 -464 -15 -592 34 -275 135 -577 265 -792 l36 -58 -201
-554 c-181 -499 -201 -558 -196 -602 5 -54 28 -91 77 -125 65 -44 76 -41 758
208 l629 229 99 -28 c163 -47 273 -62 489 -68 155 -4 227 -1 318 11 335 47
664 181 923 376 100 75 209 170 209 181 0 4 -51 60 -114 124 l-114 116 -36
-34 c-205 -192 -499 -344 -791 -408 -123 -27 -415 -37 -557 -20 -120 15 -156
23 -302 68 -78 23 -124 33 -145 29 -17 -4 -247 -85 -511 -181 -264 -96 -481
-173 -482 -171 -2 2 64 189 147 416 109 299 150 424 150 457 0 45 -16 86 -55
138 -38 50 -122 214 -159 310 -77 201 -110 387 -110 620 0 188 11 276 54 440
51 194 117 340 229 506 253 376 625 626 1076 721 95 20 139 23 315 23 228 0
344 -17 523 -76 124 -41 314 -134 413 -201 l80 -55 95 129 c52 71 94 134 94
140 0 19 -181 135 -301 193 -187 92 -385 155 -593 191 -103 18 -392 26 -512
14z"/>
<path d="M8599 6958 c-2 -13 -4 -700 -4 -1528 l0 -1505 162 -3 162 -2 3 652
c4 635 4 655 26 731 81 290 311 471 577 454 234 -16 359 -134 421 -397 15 -66
18 -153 21 -758 l4 -682 162 2 162 3 0 705 c0 636 -2 715 -18 808 -57 325
-199 505 -453 573 -114 31 -317 31 -428 0 -169 -47 -329 -161 -421 -300 -22
-33 -43 -61 -47 -61 -5 0 -8 299 -8 665 l0 665 -159 0 c-157 0 -159 0 -162
-22z"/>
<path d="M12775 6546 l-160 -52 -3 -252 -2 -252 -175 0 -175 0 0 -140 0 -140
174 0 175 0 4 -687 c3 -618 5 -695 21 -758 54 -211 177 -333 373 -371 133 -25
317 -11 408 32 l40 19 3 138 c1 75 0 137 -3 137 -3 0 -29 -12 -58 -27 -47 -25
-62 -28 -157 -28 -90 0 -112 3 -153 24 -56 27 -100 81 -124 155 -16 46 -18
120 -21 709 l-3 657 261 0 260 0 0 140 0 140 -260 0 -260 0 -2 304 -3 304
-160 -52z"/>
<path d="M11285 6034 c-170 -19 -325 -63 -465 -132 l-95 -47 -3 -172 -2 -172
77 56 c96 69 230 133 343 164 69 18 112 23 225 23 126 1 145 -1 190 -22 114
-52 174 -119 214 -240 21 -61 44 -241 32 -254 -3 -4 -154 -28 -336 -53 -398
-55 -469 -72 -605 -137 -230 -111 -340 -293 -340 -564 0 -60 7 -137 15 -171
38 -161 143 -293 289 -363 117 -55 169 -65 341 -65 129 0 161 3 225 23 144 45
287 153 369 280 19 28 38 52 43 52 4 0 8 -72 8 -160 l0 -160 160 0 161 0 -3
778 c-3 768 -4 778 -26 857 -36 131 -86 220 -166 300 -82 82 -160 124 -287
155 -83 20 -278 33 -364 24z m522 -1226 c-9 -249 -46 -354 -168 -483 -120
-126 -231 -169 -418 -163 -101 3 -123 7 -173 31 -149 73 -219 218 -189 392 28
159 111 236 308 285 65 17 565 95 627 99 18 1 19 -6 13 -161z"/>
<path d="M6030 5611 c-75 -16 -146 -76 -176 -147 -17 -39 -18 -141 -3 -181 19
-52 61 -102 108 -130 39 -24 57 -28 122 -28 67 0 81 4 124 30 99 61 143 170
111 278 -37 126 -162 204 -286 178z"/>
<path d="M6775 5614 c-78 -19 -136 -60 -173 -123 -23 -39 -27 -57 -27 -121 0
-106 42 -177 129 -222 99 -51 220 -27 296 60 130 147 38 386 -155 405 -27 3
-59 3 -70 1z"/>
<path d="M7479 5606 c-65 -17 -123 -67 -155 -132 -57 -118 -8 -264 111 -327
56 -30 164 -30 221 0 202 107 164 415 -57 462 -60 13 -61 13 -120 -3z"/>
<path d="M9223 3522 l-212 -2 25 -25 24 -24 0 -250 0 -250 -26 -20 -26 -20
226 -3 226 -3 35 104 c19 58 33 106 31 108 -2 2 -13 -11 -25 -31 -12 -19 -39
-50 -61 -69 -67 -62 -203 -87 -251 -48 -23 18 -24 25 -27 170 l-3 151 53 0
c68 0 118 -25 140 -70 22 -44 22 -29 2 85 -13 68 -19 84 -25 68 -12 -32 -40
-43 -110 -43 l-62 0 5 51 c3 27 11 56 17 62 7 7 39 12 75 11 78 -1 142 -30
190 -86 l34 -39 -19 87 c-11 49 -21 89 -22 89 -1 0 -97 -1 -214 -3z"/>
<path d="M10316 3515 c-71 -20 -124 -62 -160 -125 -27 -49 -31 -64 -31 -135 0
-71 4 -88 33 -147 37 -75 73 -110 152 -147 51 -24 67 -26 234 -29 l178 -4 -21
21 c-20 20 -21 31 -21 185 0 159 1 165 22 180 21 15 16 16 -77 15 -55 0 -93
-3 -85 -6 35 -12 40 -35 40 -175 0 -166 -6 -178 -93 -178 -146 0 -257 130
-257 298 1 128 61 202 171 210 94 7 125 -3 181 -59 27 -27 47 -42 44 -32 -3
10 -10 45 -16 78 l-12 60 -116 2 c-74 1 -135 -3 -166 -12z"/>
<path d="M11472 3522 l-213 -2 28 -24 28 -24 3 -224 c4 -242 -3 -291 -41 -305
-13 -5 70 -10 203 -13 179 -4 227 -2 233 8 11 16 67 182 67 196 0 6 -7 -1 -16
-14 -31 -47 -89 -102 -127 -121 -55 -29 -159 -37 -192 -15 -25 16 -25 17 -25
171 l0 155 45 0 c64 0 111 -23 136 -65 12 -19 22 -35 23 -35 5 0 -30 179 -36
186 -5 4 -8 0 -8 -10 0 -22 -40 -36 -106 -36 l-54 0 0 50 c0 66 26 86 101 76
78 -11 126 -34 170 -84 34 -39 40 -42 35 -22 -3 14 -12 54 -20 89 -8 34 -16
64 -18 65 -2 0 -99 0 -216 -2z"/>
<path d="M8396 3509 c40 -20 44 -49 44 -293 0 -242 -1 -251 -45 -274 -31 -17
306 -16 372 1 157 41 236 233 160 389 -34 69 -109 140 -175 164 -56 20 -395
33 -356 13z m281 -44 c60 -18 117 -70 147 -134 31 -70 29 -201 -4 -259 -33
-59 -93 -93 -173 -99 -104 -8 -101 -15 -105 250 -3 196 -1 227 13 241 20 20
57 20 122 1z"/>
<path d="M9544 3498 c18 -17 46 -84 105 -253 100 -288 99 -285 76 -302 -16
-11 -7 -13 70 -13 69 0 86 3 77 12 -7 7 -12 19 -12 27 0 33 185 507 207 529
l22 22 -82 -1 c-69 0 -78 -2 -58 -12 20 -10 23 -16 18 -52 -6 -49 -142 -431
-149 -419 -13 22 -138 414 -138 432 0 12 10 28 22 36 21 15 16 16 -80 16
l-103 0 25 -22z"/>
<path d="M10796 3508 c12 -5 27 -21 33 -34 12 -28 15 -466 2 -498 -4 -10 -18
-24 -32 -32 -21 -12 -13 -13 83 -14 l107 0 -24 25 c-25 24 -25 27 -25 191 l0
167 67 -6 c69 -5 86 -16 131 -83 12 -18 12 -18 8 1 -3 11 -10 55 -17 97 l-12
78 -23 -25 c-20 -22 -32 -25 -89 -25 l-65 0 0 48 c0 70 8 77 87 76 85 -1 160
-36 198 -91 30 -44 30 -38 8 62 l-16 75 -221 -1 c-160 0 -215 -3 -200 -11z"/>
<path d="M11825 3496 l25 -25 0 -250 0 -250 -26 -20 -27 -21 109 1 c84 0 104
3 87 11 -32 15 -43 59 -43 168 l0 96 53 17 c30 9 56 17 59 17 9 0 105 -153
122 -194 21 -51 20 -92 -1 -105 -13 -7 43 -10 187 -10 128 0 197 4 183 9 -35
14 -43 43 -43 159 l0 109 50 17 c41 14 54 14 66 4 27 -22 111 -168 124 -214
11 -41 11 -48 -5 -65 -18 -20 -16 -20 283 -20 165 0 306 -2 314 -5 10 -4 24
26 50 107 32 97 34 109 15 83 -77 -106 -166 -152 -270 -142 -74 7 -77 15 -77
189 l0 148 48 -1 c74 0 113 -18 139 -64 12 -22 22 -33 22 -25 -1 27 -37 196
-38 178 -2 -30 -41 -48 -108 -48 l-63 0 0 41 c0 55 14 77 54 85 80 14 197 -34
236 -99 24 -39 25 -23 4 72 l-16 71 -222 0 c-166 -1 -216 -3 -201 -12 44 -24
45 -31 45 -284 0 -224 -1 -243 -19 -265 -30 -36 -48 -18 -116 117 -33 66 -75
139 -93 162 l-33 41 39 25 c101 64 120 167 37 201 -43 19 -446 21 -408 3 40
-19 44 -51 41 -302 -3 -223 -4 -239 -23 -252 -11 -8 -26 -13 -35 -12 -8 2 -42
57 -75 124 -33 66 -76 142 -95 169 -20 27 -30 50 -24 52 24 8 78 54 96 80 27
41 24 94 -8 124 -25 24 -29 24 -235 27 l-210 3 26 -25z m302 -27 c34 -13 43
-25 43 -65 0 -39 -46 -84 -120 -117 -106 -48 -100 -51 -100 47 0 99 10 133 42
139 45 8 107 7 135 -4z m586 -20 c40 -49 0 -110 -106 -161 -103 -50 -97 -54
-97 60 0 126 8 134 125 127 47 -3 63 -8 78 -26z"/>
<path d="M13475 3495 l25 -24 0 -250 0 -250 -26 -20 -27 -21 109 1 c84 0 104
3 87 11 -37 18 -43 59 -43 283 0 224 6 265 43 283 17 8 -2 11 -85 11 l-107 1
24 -25z"/>
<path d="M13737 3496 l28 -24 3 -224 c4 -240 -3 -288 -40 -306 -18 -8 0 -11
86 -11 l109 -1 -27 21 c-25 20 -26 23 -26 139 l0 118 47 16 c26 9 50 16 54 16
5 0 27 -27 49 -60 83 -122 111 -217 73 -239 -13 -7 32 -10 152 -11 143 0 166
2 145 13 -15 7 -26 23 -28 38 -3 23 52 195 67 212 14 15 112 -15 154 -47 46
-34 87 -104 87 -148 0 -15 -10 -36 -22 -48 l-22 -20 103 0 c100 0 103 1 82 18
-23 18 -191 482 -191 526 0 12 5 27 12 34 9 9 -11 12 -92 12 -76 -1 -100 -3
-87 -11 9 -5 17 -17 17 -25 0 -18 -155 -433 -181 -486 -35 -69 -40 -66 -96 61
-18 41 -56 108 -83 149 -28 41 -50 75 -48 76 2 2 20 13 40 25 50 30 78 71 78
116 0 86 -26 95 -277 95 l-194 0 28 -24z m302 -27 c43 -15 56 -50 36 -92 -18
-38 -63 -70 -142 -102 l-58 -24 -3 96 c-2 59 1 100 8 108 20 24 108 32 159 14z
m530 -158 c23 -63 41 -118 41 -122 0 -5 -15 0 -33 11 -18 11 -56 24 -84 30
l-52 11 31 82 c17 45 33 90 35 100 9 29 19 10 62 -112z"/>
</g>
</svg>
